<?xml version="1.0" standalone="no"?>
<!DOCTYPE svg PUBLIC "-//W3C//DTD SVG 20010904//EN"
 "http://www.w3.org/TR/2001/REC-SVG-20010904/DTD/svg10.dtd">
<svg version="1.0" xmlns="http://www.w3.org/2000/svg"
 width="736.000000pt" height="736.000000pt" viewBox="0 0 736.000000 736.000000"
 preserveAspectRatio="xMidYMid meet">
<metadata>
Created by potrace 1.14, written by Peter Selinger 2001-2017
</metadata>
<g transform="translate(0.000000,736.000000) scale(0.100000,-0.100000)"
fill="#000000" stroke="none">
<path d="M3586 4433 c-115 -368 -214 -686 -221 -708 -8 -22 -97 -310 -200
-640 -102 -330 -202 -647 -221 -705 -19 -58 -34 -108 -34 -113 0 -4 148 -7
328 -7 l328 0 258 828 c256 817 421 1347 556 1779 39 122 70 225 70 228 0 3
-148 5 -328 5 l-328 0 -208 -667z"/>
<path d="M2700 4804 c-36 -20 -92 -50 -125 -69 -33 -18 -85 -46 -115 -62 -30
-17 -221 -121 -425 -233 -203 -111 -449 -245 -545 -298 -96 -52 -209 -114
-250 -138 l-75 -42 -3 -275 -2 -275 32 -20 c18 -11 166 -92 328 -180 318 -172
390 -211 460 -250 25 -13 207 -112 405 -219 198 -108 364 -199 370 -204 5 -5
13 -9 17 -9 4 0 8 148 8 328 l0 329 -342 188 c-189 104 -394 216 -455 250 -62
33 -113 62 -113 65 1 3 87 52 193 109 106 57 310 169 455 249 l262 145 0 311
c0 171 -4 316 -8 323 -5 8 -26 2 -72 -23z"/>
<path d="M4580 4516 c0 -247 3 -326 13 -333 6 -6 154 -88 327 -183 173 -95
335 -184 360 -198 25 -14 82 -45 128 -70 46 -24 80 -48 75 -52 -4 -5 -78 -46
-163 -93 -347 -188 -696 -380 -717 -393 -21 -13 -21 -16 -22 -333 0 -176 3
-322 7 -325 4 -2 62 27 130 65 67 37 161 89 210 115 48 26 175 95 282 154 107
59 220 121 250 137 51 27 569 310 685 374 l50 28 2 274 c2 205 -1 278 -10 285
-10 8 -263 148 -502 277 -38 21 -105 58 -149 82 -43 24 -80 43 -82 43 -1 0
-29 15 -61 34 -32 18 -87 49 -123 68 -116 63 -444 240 -495 268 -85 47 -186
100 -191 100 -2 0 -4 -146 -4 -324z"/>
</g>
</svg>
